<?xml version="1.0" encoding="UTF-8"?>
<svg xmlns="http://www.w3.org/2000/svg" xmlns:xlink="http://www.w3.org/1999/xlink" width="120" zoomAndPan="magnify" viewBox="0 0 90 67.499998" height="90" preserveAspectRatio="xMidYMid meet" version="1.0">
  <path fill="#000000" d="M 1.402344 28.058594 L 1.402344 49.96875 L 11.039062 49.96875 L 11.058594 47.898438 L 11.085938 45.835938 L 11.425781 46.34375 C 12.460938 47.90625 14.859375 49.585938 16.976562 50.226562 C 19.011719 50.851562 21.714844 50.835938 23.929688 50.191406 C 27.855469 49.050781 31.058594 45.503906 32.183594 41.0625 C 32.515625 39.765625 32.703125 37.917969 32.648438 36.507812 L 32.640625 36.222656 L 29.863281 36.222656 L 29.890625 35.972656 L 29.917969 35.734375 L 31.28125 35.707031 C 32.863281 35.679688 32.71875 35.839844 32.503906 34.359375 C 31.738281 29.148438 28.535156 25.023438 24.117188 23.59375 C 22.019531 22.917969 19.214844 22.84375 16.96875 23.417969 C 14.707031 23.988281 12.441406 25.414062 11.496094 26.878906 L 11.128906 27.433594 L 11.128906 6.148438 L 1.402344 6.148438 Z M 18.539062 30.796875 C 20.097656 31.101562 21.652344 32.261719 22.402344 33.707031 C 22.894531 34.644531 23.097656 35.429688 23.152344 36.535156 C 23.222656 38.042969 22.910156 39.292969 22.1875 40.425781 C 21.457031 41.550781 20.4375 42.335938 19.117188 42.792969 C 18.492188 43.007812 18.261719 43.042969 17.289062 43.042969 C 15.511719 43.050781 14.261719 42.597656 13.101562 41.515625 C 11.515625 40.050781 10.828125 37.839844 11.253906 35.582031 C 11.503906 34.3125 12.023438 33.304688 12.925781 32.402344 C 14.371094 30.941406 16.351562 30.371094 18.539062 30.796875 Z M 18.539062 30.796875 " fill-opacity="1" fill-rule="nonzero"></path>
  <path fill="#000000" d="M 33.265625 20.917969 L 33.265625 35.6875 L 33.574219 35.6875 C 35.066406 35.6875 36.574219 34.699219 37.28125 33.242188 C 37.484375 32.816406 37.671875 32.277344 37.726562 31.941406 C 37.78125 31.574219 37.816406 26.78125 37.816406 18.75 L 37.816406 6.148438 L 33.265625 6.148438 Z M 33.265625 20.917969 " fill-opacity="1" fill-rule="nonzero"></path>
  <path fill="#000000" d="M 38.351562 21.382812 C 38.351562 32.769531 38.332031 32.316406 38.914062 33.402344 C 39.261719 34.054688 40.019531 34.839844 40.636719 35.171875 C 41.464844 35.617188 41.949219 35.6875 44.171875 35.6875 L 46.203125 35.6875 L 46.203125 36.222656 L 44.5625 36.222656 C 42.359375 36.222656 41.707031 36.3125 40.796875 36.757812 C 39.949219 37.171875 39.304688 37.8125 38.878906 38.644531 C 38.367188 39.660156 38.351562 39.828125 38.351562 45.121094 L 38.351562 49.96875 L 42.902344 49.96875 L 42.921875 44.730469 L 42.949219 39.492188 L 47.980469 44.730469 L 53.015625 49.96875 L 64.277344 49.96875 L 58.519531 44.183594 C 55.351562 41.007812 52.292969 37.929688 51.710938 37.339844 L 50.667969 36.257812 L 56.773438 30.066406 L 62.886719 23.863281 L 57.421875 23.835938 L 51.960938 23.816406 L 47.4375 28.34375 L 42.902344 32.878906 L 42.902344 11.054688 L 38.351562 11.054688 Z M 38.351562 21.382812 " fill-opacity="1" fill-rule="nonzero"></path>
  <path fill="#000000" d="M 70.625 23.113281 C 66.9375 23.585938 63.886719 25.042969 61.457031 27.46875 C 59.066406 29.871094 57.886719 32.441406 57.628906 35.839844 C 57.316406 39.953125 58.582031 43.445312 61.414062 46.273438 C 64.394531 49.238281 68.242188 50.683594 73.15625 50.683594 C 77.949219 50.683594 81.679688 49.316406 84.589844 46.515625 C 87.5 43.703125 88.867188 39.9375 88.507812 35.734375 C 88.339844 33.679688 87.945312 32.289062 87.070312 30.59375 C 86.382812 29.269531 85.636719 28.273438 84.476562 27.15625 C 82.191406 24.960938 79.273438 23.59375 75.851562 23.148438 C 74.746094 22.996094 71.667969 22.980469 70.625 23.113281 Z M 75.140625 30.96875 C 76.84375 31.539062 78.21875 32.941406 78.835938 34.75 C 79.03125 35.339844 79.085938 35.660156 79.121094 36.582031 C 79.164062 38 79.011719 38.75 78.460938 39.882812 C 77.53125 41.757812 75.773438 42.917969 73.632812 43.070312 C 71.257812 43.238281 69.035156 42.078125 67.917969 40.070312 C 67.355469 39.078125 67.152344 38.230469 67.144531 36.9375 C 67.144531 35.617188 67.277344 35.019531 67.820312 33.902344 C 68.492188 32.527344 69.910156 31.34375 71.410156 30.914062 C 72.535156 30.582031 74.078125 30.609375 75.140625 30.96875 Z M 75.140625 30.96875 " fill-opacity="1" fill-rule="nonzero"></path>
  <path fill="#000000" d="M 33.265625 43.105469 L 33.265625 49.96875 L 37.824219 49.96875 L 37.796875 44.945312 L 37.769531 39.929688 L 37.539062 39.292969 C 36.886719 37.519531 35.546875 36.464844 33.691406 36.285156 L 33.265625 36.242188 Z M 33.265625 43.105469 " fill-opacity="1" fill-rule="nonzero"></path>
  <path fill="#000000" d="M 37.546875 56.859375 C 36.816406 57.0625 36.371094 57.820312 36.359375 58.859375 C 36.359375 59.410156 36.394531 59.597656 36.621094 60.027344 C 36.984375 60.75 37.371094 60.964844 38.226562 60.929688 C 38.984375 60.890625 39.378906 60.652344 39.691406 60 C 39.957031 59.445312 39.976562 58.394531 39.714844 57.8125 C 39.324219 56.949219 38.503906 56.582031 37.546875 56.859375 Z M 38.761719 57.25 C 39.242188 57.484375 39.449219 57.910156 39.492188 58.75 C 39.519531 59.375 39.492188 59.527344 39.316406 59.867188 C 38.921875 60.625 38.269531 60.855469 37.546875 60.480469 C 36.941406 60.167969 36.71875 59.6875 36.761719 58.75 C 36.789062 58.207031 36.851562 57.957031 36.996094 57.714844 C 37.34375 57.152344 38.117188 56.949219 38.761719 57.25 Z M 38.761719 57.25 " fill-opacity="1" fill-rule="nonzero"></path>
  <path fill="#000000" d="M 58.039062 56.875 C 56.585938 57.421875 56.324219 59.722656 57.621094 60.632812 C 57.949219 60.867188 58.09375 60.902344 58.691406 60.929688 C 59.171875 60.953125 59.476562 60.917969 59.707031 60.820312 L 60.039062 60.6875 L 60.039062 58.714844 L 59.367188 58.714844 C 58.761719 58.714844 58.699219 58.734375 58.699219 58.894531 C 58.699219 59.054688 58.761719 59.070312 59.191406 59.070312 L 59.679688 59.070312 L 59.679688 60.492188 L 59.304688 60.589844 C 58.15625 60.902344 57.183594 60.117188 57.183594 58.875 C 57.183594 57.777344 57.816406 57.109375 58.84375 57.109375 C 59.066406 57.109375 59.386719 57.171875 59.566406 57.242188 C 59.957031 57.410156 59.949219 57.410156 59.949219 57.199219 C 59.949219 56.964844 59.636719 56.839844 58.921875 56.785156 C 58.582031 56.761719 58.261719 56.796875 58.039062 56.875 Z M 58.039062 56.875 " fill-opacity="1" fill-rule="nonzero"></path>
  <path fill="#000000" d="M 7.203125 58.882812 L 7.203125 60.945312 L 8.03125 60.945312 C 9.105469 60.945312 9.488281 60.839844 9.703125 60.472656 C 10.042969 59.917969 9.878906 59.257812 9.335938 58.972656 C 9.167969 58.882812 9.09375 58.8125 9.175781 58.804688 C 9.613281 58.796875 9.917969 57.964844 9.667969 57.484375 C 9.441406 57.046875 9.066406 56.902344 8.078125 56.859375 L 7.203125 56.824219 Z M 9.113281 57.386719 C 9.34375 57.574219 9.425781 57.964844 9.292969 58.3125 C 9.191406 58.554688 8.757812 58.714844 8.183594 58.714844 L 7.648438 58.714844 L 7.648438 57.199219 L 8.265625 57.199219 C 8.746094 57.199219 8.925781 57.234375 9.113281 57.386719 Z M 9.265625 59.332031 C 9.550781 59.625 9.585938 59.847656 9.390625 60.222656 C 9.230469 60.554688 9.113281 60.589844 8.308594 60.589844 L 7.648438 60.589844 L 7.648438 59.070312 L 8.328125 59.070312 C 8.953125 59.070312 9.023438 59.089844 9.265625 59.332031 Z M 9.265625 59.332031 " fill-opacity="1" fill-rule="nonzero"></path>
  <path fill="#000000" d="M 14.171875 57.046875 C 13.960938 57.617188 12.824219 60.847656 12.824219 60.902344 C 12.824219 60.929688 12.914062 60.945312 13.023438 60.929688 C 13.171875 60.910156 13.253906 60.785156 13.398438 60.339844 L 13.574219 59.785156 L 15.394531 59.785156 L 15.59375 60.367188 C 15.753906 60.855469 15.816406 60.945312 15.992188 60.945312 L 16.199219 60.945312 L 15.914062 60.117188 C 15.753906 59.667969 15.433594 58.742188 15.191406 58.0625 C 14.78125 56.867188 14.761719 56.839844 14.511719 56.839844 C 14.316406 56.839844 14.226562 56.894531 14.171875 57.046875 Z M 14.914062 58.3125 C 15.09375 58.859375 15.234375 59.320312 15.234375 59.367188 C 15.234375 59.402344 14.886719 59.429688 14.46875 59.429688 C 14.046875 59.429688 13.71875 59.394531 13.734375 59.355469 C 13.753906 59.3125 13.921875 58.8125 14.121094 58.242188 C 14.316406 57.671875 14.503906 57.234375 14.53125 57.269531 C 14.566406 57.304688 14.734375 57.777344 14.914062 58.3125 Z M 14.914062 58.3125 " fill-opacity="1" fill-rule="nonzero"></path>
  <path fill="#000000" d="M 19.25 58.894531 L 19.25 60.945312 L 20.367188 60.945312 C 21.421875 60.945312 21.484375 60.9375 21.484375 60.765625 C 21.484375 60.597656 21.421875 60.589844 20.589844 60.589844 L 19.699219 60.589844 L 19.699219 56.839844 L 19.25 56.839844 Z M 19.25 58.894531 " fill-opacity="1" fill-rule="nonzero"></path>
  <path fill="#000000" d="M 25.6875 57.046875 C 25.472656 57.617188 24.339844 60.847656 24.339844 60.902344 C 24.339844 60.929688 24.429688 60.945312 24.535156 60.929688 C 24.6875 60.910156 24.765625 60.785156 24.910156 60.339844 L 25.089844 59.785156 L 26.910156 59.785156 L 27.105469 60.367188 C 27.265625 60.855469 27.328125 60.945312 27.507812 60.945312 L 27.710938 60.945312 L 27.425781 60.117188 C 27.265625 59.667969 26.945312 58.742188 26.703125 58.0625 C 26.292969 56.867188 26.277344 56.839844 26.027344 56.839844 C 25.828125 56.839844 25.738281 56.894531 25.6875 57.046875 Z M 26.425781 58.3125 C 26.605469 58.859375 26.75 59.320312 26.75 59.367188 C 26.75 59.402344 26.402344 59.429688 25.980469 59.429688 C 25.5625 59.429688 25.230469 59.394531 25.25 59.355469 C 25.265625 59.3125 25.4375 58.8125 25.632812 58.242188 C 25.828125 57.671875 26.015625 57.234375 26.042969 57.269531 C 26.078125 57.304688 26.25 57.777344 26.425781 58.3125 Z M 26.425781 58.3125 " fill-opacity="1" fill-rule="nonzero"></path>
  <path fill="#000000" d="M 30.765625 58.894531 L 30.765625 60.945312 L 31.210938 60.945312 L 31.210938 56.839844 L 30.765625 56.839844 Z M 30.765625 58.894531 " fill-opacity="1" fill-rule="nonzero"></path>
  <path fill="#000000" d="M 32.15625 57.8125 C 31.738281 58.339844 31.390625 58.820312 31.371094 58.867188 C 31.355469 58.921875 31.710938 59.410156 32.148438 59.957031 C 32.835938 60.804688 32.988281 60.945312 33.210938 60.945312 L 33.46875 60.945312 L 33.289062 60.742188 C 33.203125 60.632812 32.808594 60.179688 32.441406 59.730469 L 31.765625 58.929688 L 32.390625 58.125 C 32.726562 57.6875 33.09375 57.222656 33.191406 57.082031 L 33.363281 56.839844 L 33.140625 56.839844 C 32.960938 56.839844 32.765625 57.035156 32.15625 57.8125 Z M 32.15625 57.8125 " fill-opacity="1" fill-rule="nonzero"></path>
  <path fill="#000000" d="M 46.742188 58.894531 L 46.742188 60.945312 L 47.480469 60.945312 C 49.175781 60.945312 49.953125 60.285156 49.953125 58.847656 C 49.953125 58.152344 49.757812 57.695312 49.273438 57.304688 C 48.863281 56.964844 48.375 56.839844 47.464844 56.839844 L 46.742188 56.839844 Z M 48.6875 57.367188 C 49.273438 57.671875 49.605469 58.222656 49.585938 58.910156 C 49.570312 60 48.9375 60.589844 47.792969 60.589844 L 47.1875 60.589844 L 47.1875 57.199219 L 47.765625 57.199219 C 48.167969 57.199219 48.460938 57.25 48.6875 57.367188 Z M 48.6875 57.367188 " fill-opacity="1" fill-rule="nonzero"></path>
  <path fill="#000000" d="M 53.167969 58.894531 C 53.167969 60.882812 53.175781 60.945312 53.34375 60.945312 C 53.515625 60.945312 53.523438 60.882812 53.523438 58.894531 C 53.523438 56.902344 53.515625 56.839844 53.34375 56.839844 C 53.175781 56.839844 53.167969 56.902344 53.167969 58.894531 Z M 53.167969 58.894531 " fill-opacity="1" fill-rule="nonzero"></path>
  <path fill="#000000" d="M 63.339844 58.894531 C 63.339844 60.882812 63.347656 60.945312 63.519531 60.945312 C 63.6875 60.945312 63.699219 60.882812 63.699219 58.894531 C 63.699219 56.902344 63.6875 56.839844 63.519531 56.839844 C 63.347656 56.839844 63.339844 56.902344 63.339844 58.894531 Z M 63.339844 58.894531 " fill-opacity="1" fill-rule="nonzero"></path>
  <path fill="#000000" d="M 66.730469 57.019531 C 66.730469 57.179688 66.792969 57.199219 67.3125 57.199219 L 67.890625 57.199219 L 67.890625 59.070312 C 67.890625 60.882812 67.902344 60.945312 68.070312 60.945312 C 68.242188 60.945312 68.25 60.882812 68.25 59.070312 L 68.25 57.199219 L 68.828125 57.199219 C 69.347656 57.199219 69.410156 57.179688 69.410156 57.019531 C 69.410156 56.847656 69.347656 56.839844 68.070312 56.839844 C 66.792969 56.839844 66.730469 56.847656 66.730469 57.019531 Z M 66.730469 57.019531 " fill-opacity="1" fill-rule="nonzero"></path>
  <path fill="#000000" d="M 73.433594 57.046875 C 73.21875 57.617188 72.085938 60.847656 72.085938 60.902344 C 72.085938 60.929688 72.175781 60.945312 72.285156 60.929688 C 72.433594 60.910156 72.515625 60.785156 72.660156 60.339844 L 72.835938 59.785156 L 74.65625 59.785156 L 74.855469 60.367188 C 75.015625 60.855469 75.078125 60.945312 75.253906 60.945312 L 75.460938 60.945312 L 75.175781 60.117188 C 75.015625 59.667969 74.691406 58.742188 74.453125 58.0625 C 74.042969 56.867188 74.023438 56.839844 73.773438 56.839844 C 73.578125 56.839844 73.488281 56.894531 73.433594 57.046875 Z M 74.175781 58.3125 C 74.355469 58.859375 74.496094 59.320312 74.496094 59.367188 C 74.496094 59.402344 74.148438 59.429688 73.730469 59.429688 C 73.308594 59.429688 72.980469 59.394531 72.996094 59.355469 C 73.015625 59.3125 73.183594 58.8125 73.382812 58.242188 C 73.578125 57.671875 73.765625 57.234375 73.792969 57.269531 C 73.828125 57.304688 73.996094 57.777344 74.175781 58.3125 Z M 74.175781 58.3125 " fill-opacity="1" fill-rule="nonzero"></path>
  <path fill="#000000" d="M 78.511719 58.894531 L 78.511719 60.945312 L 79.628906 60.945312 C 80.683594 60.945312 80.746094 60.9375 80.746094 60.765625 C 80.746094 60.597656 80.683594 60.589844 79.851562 60.589844 L 78.960938 60.589844 L 78.960938 56.839844 L 78.511719 56.839844 Z M 78.511719 58.894531 " fill-opacity="1" fill-rule="nonzero"></path>
</svg>
